<?xml version="1.0" encoding="utf-8"?>
<!-- Generator: Adobe Illustrator 18.0.0, SVG Export Plug-In . SVG Version: 6.00 Build 0)  -->
<!DOCTYPE svg PUBLIC "-//W3C//DTD SVG 1.1//EN" "http://www.w3.org/Graphics/SVG/1.1/DTD/svg11.dtd">
<svg version="1.1" id="Layer_1" xmlns="http://www.w3.org/2000/svg" xmlns:xlink="http://www.w3.org/1999/xlink" x="0px" y="0px"
	 viewBox="0 0 410 80" enable-background="new 0 0 410 80" xml:space="preserve">
<path fill="#5368C1" d="M64.5,55.1c0,0-2.9-2.4-1.7-5.6L77.6,9.3c0,0,1.2-3.2,1.2,0.2l-0.1,53.9c0,0,0,3.4-2.9,1.1L64.5,55.1
	L64.5,55.1z"/>
<path fill="#D7D7EF" d="M33.8,13.3L5.6,22.8c0,0-3.6,1.2,0.3,1.1l62-3.3c0,0,3.9-0.2,1-2.5L57.5,8.7l0,0c0,0-2.9-2.4-6.5-1.1
	L33.8,13.3"/>
<path fill="#ADB0E0" d="M18.8,41.7c0,0,0,3.4,3.6,4.8l44.8,17.2c0,0,3.6,1.4,0.7-0.9l-46-35.1c0,0-3-2.3-3,1.1V41.7L18.8,41.7z"/>
<g>
	<path fill="#AFAFAF" d="M102.6,21.1v34.1h-4V21.1H86.7v-3.9h27.7v3.9H102.6z"/>
	<path fill="#AFAFAF" d="M122.4,38.6v16.7h-4v-38h11.3c1.5,0,3,0.3,4.3,0.8c1.4,0.5,2.5,1.2,3.5,2.1c1,0.9,1.8,1.9,2.4,3.1
		c0.6,1.2,0.9,2.5,0.9,3.8c0,1.4-0.3,2.7-0.9,3.9c-0.6,1.2-1.4,2.3-2.4,3.2c-1,0.9-2.2,1.6-3.5,2.1c-1.4,0.5-2.8,0.8-4.3,0.8h-3.2
		c1.1,1.3,2.2,2.6,3.4,4c1.2,1.4,2.4,2.7,3.6,4.1c0.7,0.8,1.4,1.7,2.2,2.5s1.5,1.8,2.3,2.6c0.8,0.9,1.6,1.7,2.3,2.6
		c0.8,0.8,1.5,1.6,2.1,2.4h-5.2L122.4,38.6z M122.4,21.1v12h7.3c1,0,1.9-0.2,2.8-0.5c0.9-0.3,1.6-0.7,2.3-1.3
		c0.6-0.5,1.2-1.2,1.5-1.9c0.4-0.7,0.6-1.5,0.6-2.4c0-0.8-0.2-1.6-0.6-2.3c-0.4-0.7-0.9-1.4-1.6-1.9s-1.4-1-2.3-1.3
		c-0.9-0.3-1.8-0.5-2.8-0.5H122.4z"/>
	<path fill="#AFAFAF" d="M148.5,55.3h-4v-38h4V55.3z"/>
</g>
<g>
	<path fill="#E8E8E8" d="M164.2,37.2v18.1h-4v-38h11.3c1.5,0,3,0.3,4.3,0.8c1.4,0.5,2.5,1.2,3.5,2.1c1,0.9,1.8,1.9,2.4,3.1
		c0.6,1.2,0.9,2.4,0.9,3.8c0,1.4-0.3,2.8-0.9,4c-0.6,1.2-1.4,2.3-2.4,3.2c-1,0.9-2.2,1.6-3.5,2.1c-1.4,0.5-2.8,0.8-4.3,0.8H164.2z
		 M164.2,21.1v12h7.3c1,0,1.9-0.2,2.8-0.5c0.9-0.3,1.6-0.7,2.3-1.3c0.6-0.5,1.2-1.2,1.5-1.9c0.4-0.7,0.6-1.5,0.6-2.4
		c0-0.8-0.2-1.6-0.6-2.3s-0.9-1.3-1.6-1.9c-0.7-0.5-1.4-1-2.3-1.3c-0.9-0.3-1.8-0.5-2.8-0.5H164.2z"/>
	<path fill="#E8E8E8" d="M199.2,17.2h3l14,38h-4.2l-5.6-15H195c-0.6,1.6-1.2,3.2-1.8,4.8c-0.6,1.6-1.2,3.3-1.8,4.9
		c-0.3,0.8-0.7,1.7-1,2.7c-0.4,0.9-0.7,1.8-1,2.6h-4.1L199.2,17.2z M205.1,36.2c-0.3-0.8-0.6-1.8-1-2.8c-0.4-1-0.8-2-1-2.8v0.1
		c-0.2-0.6-0.4-1.1-0.6-1.6c-0.2-0.5-0.4-0.9-0.5-1.3s-0.3-0.9-0.5-1.4c-0.2-0.5-0.4-1-0.6-1.7c-0.3,0.7-0.6,1.4-0.9,2.2
		c-0.3,0.8-0.5,1.5-0.8,2.2v0.1c-0.5,1.3-1,2.4-1.3,3.5c-0.4,1-0.8,2.2-1.3,3.6H205.1z"/>
	<path fill="#E8E8E8" d="M253.2,17.2l-15.7,21v17h-4.1v-17c-0.7-0.9-1.4-1.8-2.1-2.9c-0.8-1-1.5-2-2.2-3c-0.9-1.2-1.8-2.4-2.8-3.8
		c-1-1.3-2-2.7-3-4c-1-1.3-2-2.6-2.9-3.9c-0.9-1.3-1.8-2.5-2.6-3.5h5.2l12.4,17c0.5-0.7,1.1-1.5,1.7-2.2c0.5-0.7,1.1-1.5,1.6-2.3
		c1.5-2.1,3.1-4.2,4.6-6.3c1.6-2.2,3.2-4.3,4.7-6.3H253.2z"/>
	<path fill="#E8E8E8" d="M282.3,17.2h3.7v38h-4.1V25.8c-1.6,2.7-3.2,5.5-4.9,8.4c-1.6,2.9-3.2,5.6-4.8,8.3h-2.5L260,25.8v29.5h-4
		v-38h3.6l11.5,19.3L282.3,17.2z"/>
	<path fill="#E8E8E8" d="M310.6,37.1h-15.9v14.1h18.7v4h-22.7v-38h22.7v3.9h-18.7v11.9h15.9V37.1z"/>
	<path fill="#E8E8E8" d="M321.1,17.2l17.3,29.3V17.2h4v38h-3.6l-17.3-29.5v29.5h-4v-38H321.1z"/>
	<path fill="#E8E8E8" d="M362.7,21.1v34.1h-4V21.1h-11.9v-3.9h27.7v3.9H362.7z"/>
	<path fill="#E8E8E8" d="M381.5,47.2c0.9,1.4,2.1,2.5,3.4,3.3c1.4,0.8,2.9,1.2,4.6,1.2c1,0,1.9-0.2,2.9-0.5c0.9-0.3,1.7-0.8,2.4-1.3
		c0.7-0.5,1.2-1.2,1.7-2c0.4-0.8,0.6-1.6,0.6-2.5c0-0.8-0.2-1.7-0.6-2.4c-0.4-0.8-0.9-1.5-1.6-2.1c-0.7-0.6-1.4-1.2-2.3-1.6
		c-0.9-0.4-1.8-0.7-2.8-0.9c-1.6-0.2-3-0.7-4.4-1.3s-2.5-1.4-3.5-2.4c-1-1-1.8-2.1-2.4-3.3c-0.6-1.2-0.9-2.5-0.9-3.9
		c0-1.5,0.3-2.9,0.9-4.2c0.6-1.3,1.5-2.4,2.6-3.4c1.1-0.9,2.4-1.7,3.8-2.2c1.5-0.5,3-0.8,4.7-0.8c2.2,0,4.2,0.4,5.9,1.3
		c1.8,0.9,3.4,2.1,4.8,3.7l-3.3,2.6c-1-1.2-2.1-2.1-3.3-2.8c-1.2-0.7-2.6-1-4.1-1c-1,0-2,0.2-3,0.5c-1,0.3-1.8,0.8-2.5,1.4
		c-0.7,0.6-1.3,1.3-1.8,2.1c-0.4,0.8-0.7,1.6-0.7,2.5s0.2,1.7,0.6,2.6c0.4,0.8,0.9,1.6,1.6,2.2c0.7,0.6,1.5,1.2,2.4,1.6
		c0.9,0.4,1.9,0.7,3,0.7c1.6,0.2,3,0.6,4.4,1.3c1.3,0.7,2.5,1.5,3.5,2.4c1,1,1.8,2,2.3,3.3s0.8,2.5,0.8,3.8c0,1.5-0.3,2.8-0.9,4.1
		c-0.6,1.3-1.5,2.4-2.5,3.3c-1.1,0.9-2.3,1.7-3.7,2.2s-3,0.8-4.6,0.8c-2.3,0-4.4-0.6-6.4-1.7c-1.9-1.1-3.5-2.6-4.7-4.3L381.5,47.2z"
		/>
</g>
</svg>
